<svg xmlns="http://www.w3.org/2000/svg" width="100" height="100" viewBox="0 0 100 100"><path d="M13.6 39.4l28 28c1.3 1.3 3.4.4 3.4-1.4V51.8c.6 0 1.2-.1 1.7-.1 12.8 0 23.2 10.3 23.2 22.9 0 5.2-1.8 9.7-5.4 14-1.4 1.6.5 4.1 2.4 3.1C79.5 85.3 87 73.4 87 59.9c0-20.2-16.7-36.5-37.3-36.5-1.6 0-3.3.1-4.7.3V10c0-1.8-2.1-2.7-3.4-1.4l-28 28c-.8.8-.8 2 0 2.8zm4.2-1.4L41 14.8V26c0 1.2 1.1 2.2 2.4 2 1.6-.3 4-.7 6.4-.7C68.1 27.3 83 41.9 83 59.9c0 9.1-3.9 17.5-10.7 23.4 1-2.7 1.6-5.6 1.6-8.6 0-14.9-12.2-26.9-27.2-26.9-3.1 0-5.7 0-5.7 2.2v11.2L17.8 38z"/><path fill="#00F" d="M384-510v1684h-1784V-510H384m8-8h-1800v1700H392V-518z"/></svg>